<svg width="811" height="645" viewBox="0 0 811 645" fill="none" xmlns="http://www.w3.org/2000/svg">
<path d="M405.5 0L441.39 114.827L514.903 11.9592L510.509 130.23L616.191 46.9497L571.839 159.892L701.854 102.377L620.833 201.613L765.537 174.129L653.856 252.301L802.519 256.885L668.461 308.195L810.055 344.508L663.562 365.149L787.587 430.499L639.524 418.941L736.781 508.479L598.13 465.58L661.406 572.667L542.449 501.608L567.052 618.301L476.612 524.352L460.716 641.996L405.5 532.125L350.284 641.996L334.388 524.352L243.948 618.301L268.551 501.608L149.594 572.667L212.87 465.58L74.2187 508.479L171.476 418.941L23.4132 430.499L147.438 365.149L0.945312 344.508L142.539 308.195L8.48141 256.885L157.144 252.301L45.4626 174.129L190.167 201.613L109.146 102.377L239.161 159.892L194.809 46.9497L300.491 130.23L296.097 11.9592L369.61 114.827L405.5 0Z" fill="#FFF700"/>
<path d="M348.86 239.564C340.722 239.564 338.164 249.329 338.164 266.768C338.164 280.719 338.164 349.31 338.164 363.028C338.164 380.699 340.722 392.79 348.86 392.79V395.115H322.353L239.578 271.418C239.578 273.743 239.578 351.868 239.578 363.028C239.578 380.699 242.369 392.79 250.507 392.79V395.115H224V392.79C232.138 392.79 234.928 380.699 234.928 363.028C234.928 349.31 234.928 280.719 234.928 266.768C234.928 249.329 232.138 239.564 224 239.564V237.239H239.578L333.281 375.352C333.281 375.352 333.281 277.928 333.281 266.768C333.281 249.329 330.491 239.564 322.353 239.564V237.239H348.86V239.564ZM412.794 386.28C431.395 386.28 446.741 365.586 451.159 354.89L452.786 356.983C449.298 367.214 433.953 395.115 407.678 395.115C379.079 395.115 356.991 374.422 351.875 346.52C344.202 305.133 365.128 273.511 398.145 273.511C428.605 273.511 445.113 292.344 447.438 323.036H369.081C369.546 371.166 393.728 386.28 412.794 386.28ZM398.145 278.393C383.497 278.393 372.104 292.577 369.546 318.153H429.07C426.28 292.577 412.561 278.393 398.145 278.393ZM574.462 273.511H601.201V276.068C593.063 276.068 586.087 287.927 579.809 305.598C575.624 317.921 556.093 373.259 548.188 395.115H543.072C535.399 373.259 524.704 343.032 517.728 323.501C510.055 345.357 498.197 379.072 492.617 395.115H487.502C476.108 363.261 458.437 313.038 455.88 305.598C449.602 287.927 442.626 275.836 434.488 275.836V273.511H475.411V275.836C467.273 275.836 468.9 287.927 474.946 305.598C476.573 310.248 486.571 338.382 497.035 367.911C503.312 350.008 510.753 329.314 515.171 316.293C513.543 311.178 512.148 307.225 511.45 305.598C505.173 287.927 498.197 275.836 490.292 275.836V273.511H531.214V275.836C523.076 275.836 524.471 287.927 530.749 305.598C532.377 310.248 542.375 338.382 552.838 367.911C561.441 343.497 571.671 314.201 574.694 305.598C580.972 287.927 582.6 275.836 574.462 275.836V273.511Z" fill="black"/>
</svg>
